<?xml version="1.0" encoding="utf-8"?>
<!-- Generator: Adobe Illustrator 17.1.0, SVG Export Plug-In . SVG Version: 6.00 Build 0)  -->
<!DOCTYPE svg PUBLIC "-//W3C//DTD SVG 1.1//EN" "http://www.w3.org/Graphics/SVG/1.1/DTD/svg11.dtd">
<svg width="768" height="500" xmlns="http://www.w3.org/2000/svg">
<linearGradient id="SVGID_1_" gradientUnits="userSpaceOnUse" x1="674" y1="546.5631" x2="790" y2="546.5631" gradientTransform="matrix(-1 0 0 1 1174 -292.0631)">
	<stop  offset="0" style="stop-color:#FFFFFF;stop-opacity:0"/>
	<stop  offset="1" style="stop-color:#A9A9A9"/>
</linearGradient>
<rect x="384" y="10" fill="url(#SVGID_1_)" width="116" height="489"/>
<linearGradient id="SVGID_2_" gradientUnits="userSpaceOnUse" x1="558" y1="546.5631" x2="674" y2="546.5631" gradientTransform="matrix(1 0 0 1 -290 -292.0631)">
	<stop  offset="0" style="stop-color:#FFFFFF;stop-opacity:0"/>
	<stop  offset="1" style="stop-color:#A9A9A9"/>
</linearGradient>
<rect x="268" y="10" fill="url(#SVGID_2_)" width="116" height="489"/>
<rect id="svg_1" x="3" y="3" fill="none" stroke="#464646" stroke-width="16" width="762" height="494"/>
<line id="svg_2" fill="none" stroke="#464646" stroke-width="2" x1="384" y1="10" x2="384" y2="489"/>
<polyline id="svg_3_1_" fill="none" stroke="#464646" stroke-width="2" points="753,10 753,485 15,485 15,10 "/>
<polyline id="svg_3_7_" fill="none" stroke="#464646" stroke-width="2" points="379.6,480 20,480 20,10 "/>
<polyline id="svg_3_3_" fill="none" stroke="#464646" stroke-width="2" points="748,10 748,480 388.4,480 "/>
<polyline id="svg_3_6_" fill="none" stroke="#464646" stroke-width="2" points="372.6,475 25,475 25,10 "/>
<polyline id="svg_3_5_" fill="none" stroke="#464646" stroke-width="2" points="743,10 743,475 395.4,475 "/>
<path id="svg_3_4_" fill="none" stroke="#464646" stroke-width="2" d="M738,10c0,0,0,460,0,460H422.8c-38.8,0-38.8,19-38.8,19
	s0-19-38.8-19H30V10"/>
</svg>
